<?xml version="1.0" encoding="UTF-8" standalone="no"?>
<!DOCTYPE svg PUBLIC "-//W3C//DTD SVG 1.1//EN" "http://www.w3.org/Graphics/SVG/1.1/DTD/svg11.dtd">
<svg xmlns:dc="http://purl.org/dc/elements/1.1/" xmlns:xl="http://www.w3.org/1999/xlink" version="1.1" xmlns="http://www.w3.org/2000/svg" viewBox="621.5 46.5 258.00013 258.50013" width="258.00013" height="258.50013">
  <defs/>
  <metadata> Produced by OmniGraffle 7.17.2\n2020-08-04 11:57:36 +0000</metadata>
  <g id="Canvas_1" stroke-dasharray="none" stroke-opacity="1" stroke="none" fill="none" fill-opacity="1">
    <title>Canvas 1</title>
    <g id="Canvas_1_Layer_1">
      <title>Layer 1</title>
      <g id="Graphic_42">
        <path d="M 638.83506 240.5294 L 623.46595 295.29347 L 673.3855 279.3848 C 723.9059 317.2218 795.8081 313.14136 841.7167 267.1435 C 892.0946 216.6683 892.0946 134.83184 841.7167 84.35661 C 791.3391 33.88113 709.661 33.88113 659.2834 84.35661 C 617.0328 126.68889 610.2167 191.07985 638.83506 240.5294 Z M 830.8105 116.14404 L 786.7558 141.3182 C 786.4604 141.0075 786.1603 140.69965 785.8554 140.39476 C 766.3292 120.86846 734.671 120.86846 715.1448 140.39476 C 695.6185 159.92096 695.6185 191.57916 715.1448 211.10536 C 734.671 230.63166 766.3292 230.63166 785.8554 211.10536 C 786.1603 210.80048 786.4604 210.49264 786.7558 210.18193 L 830.8105 235.35608 C 827.9273 239.23074 824.7273 242.94407 821.2107 246.46066 C 782.1583 285.51326 718.8419 285.51326 679.7895 246.46066 C 640.7369 207.40826 640.7369 144.09186 679.7895 105.03946 C 718.8419 65.986865 782.1583 65.986865 821.2107 105.03946 C 824.7273 108.55605 827.9273 112.26939 830.8105 116.14404 Z" fill="#859900"/>
      </g>
    </g>
  </g>
</svg>
